# xmcd CD database file
#
# Track frame offsets:
#	180
#	16049
#	28377
#	45754
#	60364
#	79185
#	95727
#	119668
#	129884
#	144939
#	167895
#	183070
#	200124
#	211827
#
# Disc length: 3014 seconds
#
# Revision: 0
# Processed by: cddbd v1.4PL0 Copyright (c) Steve Scherf et al.
# Submitted via: CDex 1.50
#
DISCID=b60bc40e
DTITLE=Mark Madsen - At Long Last Love
DYEAR=1998
DGENRE=Jazz
TTITLE0=At Long Last Love
TTITLE1=Easy To Love
TTITLE2=Here's That Rainy Day
TTITLE3=Night And Day
TTITLE4=I Concentrate On You
TTITLE5=Birth Of The Blues
TTITLE6=But Beautiful
TTITLE7=Paper Moon
TTITLE8=But Not For Me
TTITLE9=Detour Ahead
TTITLE10=One Note Samba
TTITLE11=Emily
TTITLE12=Alexander's Ragtime Band
TTITLE13=What Now My Love
EXTD=YEAR: 1998
EXTT0=
EXTT1=
EXTT2=
EXTT3=
EXTT4=
EXTT5=
EXTT6=
EXTT7=
EXTT8=
EXTT9=
EXTT10=
EXTT11=
EXTT12=
EXTT13=
PLAYORDER=
